<svg xmlns="http://www.w3.org/2000/svg" xmlns:xlink="http://www.w3.org/1999/xlink" width="800" zoomAndPan="magnify" viewBox="0 0 600 149.999998" height="200" preserveAspectRatio="xMidYMid meet" version="1.0"><defs><g/><clipPath id="id1"><path d="M 11.660156 24.523438 L 130 24.523438 L 130 113.769531 L 11.660156 113.769531 Z M 11.660156 24.523438 " clip-rule="nonzero"/></clipPath><clipPath id="id2"><path d="M 140 53 L 148.910156 53 L 148.910156 63 L 140 63 Z M 140 53 " clip-rule="nonzero"/></clipPath><clipPath id="id3"><path d="M 64 64 L 136 64 L 136 113.769531 L 64 113.769531 Z M 64 64 " clip-rule="nonzero"/></clipPath></defs><g fill="#f7fdff" fill-opacity="1"><g transform="translate(147.308486, 99.251878)"><g><path d="M 13.421875 -18.734375 L 13.421875 0 L 3.53125 0 L 3.53125 -45.71875 L 21.125 -45.71875 C 26.96875 -45.71875 29.890625 -42.609375 29.890625 -36.390625 L 29.890625 -31.09375 C 29.890625 -27.320312 28.546875 -24.921875 25.859375 -23.890625 C 28.222656 -23.035156 29.40625 -21.101562 29.40625 -18.09375 L 29.40625 0 L 19.5 0 L 19.5 -17.3125 C 19.5 -18.257812 19.050781 -18.734375 18.15625 -18.734375 Z M 13.421875 -39.015625 L 13.421875 -25.65625 L 18.65625 -25.65625 C 19.03125 -25.65625 19.347656 -25.796875 19.609375 -26.078125 C 19.867188 -26.359375 20 -26.6875 20 -27.0625 L 20 -37.59375 C 20 -37.96875 19.867188 -38.296875 19.609375 -38.578125 C 19.347656 -38.867188 19.03125 -39.015625 18.65625 -39.015625 Z M 13.421875 -39.015625 "/></g></g></g><g fill="#f7fdff" fill-opacity="1"><g transform="translate(178.259068, 99.251878)"><g><path d="M 19.921875 -35.1875 C 25.765625 -35.1875 28.6875 -32.078125 28.6875 -25.859375 L 28.6875 -14.703125 L 12.65625 -14.703125 L 12.65625 -7.484375 C 12.65625 -7.109375 12.78125 -6.78125 13.03125 -6.5 C 13.289062 -6.21875 13.613281 -6.078125 14 -6.078125 L 17.875 -6.078125 C 18.257812 -6.078125 18.578125 -6.21875 18.828125 -6.5 C 19.085938 -6.78125 19.21875 -7.109375 19.21875 -7.484375 L 19.21875 -11.3125 L 28.6875 -11.3125 L 28.6875 -8.625 C 28.6875 -2.40625 25.765625 0.703125 19.921875 0.703125 L 11.9375 0.703125 C 6.101562 0.703125 3.1875 -2.40625 3.1875 -8.625 L 3.1875 -25.859375 C 3.1875 -32.078125 6.101562 -35.1875 11.9375 -35.1875 Z M 12.65625 -20.921875 L 19.21875 -20.921875 L 19.21875 -27.28125 C 19.21875 -27.65625 19.085938 -27.984375 18.828125 -28.265625 C 18.578125 -28.546875 18.257812 -28.6875 17.875 -28.6875 L 14 -28.6875 C 13.613281 -28.6875 13.289062 -28.546875 13.03125 -28.265625 C 12.78125 -27.984375 12.65625 -27.65625 12.65625 -27.28125 Z M 12.65625 -20.921875 "/></g></g></g><g fill="#f7fdff" fill-opacity="1"><g transform="translate(207.231057, 99.251878)"><g><path d="M 34.28125 -35.1875 C 40.125 -35.1875 43.046875 -32.078125 43.046875 -25.859375 L 43.046875 0 L 33.5625 0 L 33.5625 -27 C 33.5625 -27.375 33.429688 -27.703125 33.171875 -27.984375 C 32.921875 -28.265625 32.601562 -28.40625 32.21875 -28.40625 L 29.1875 -28.40625 C 28.8125 -28.40625 28.492188 -28.265625 28.234375 -27.984375 C 27.972656 -27.703125 27.84375 -27.375 27.84375 -27 L 27.84375 0 L 18.375 0 L 18.375 -27 C 18.375 -27.375 18.242188 -27.703125 17.984375 -27.984375 C 17.722656 -28.265625 17.40625 -28.40625 17.03125 -28.40625 L 14 -28.40625 C 13.613281 -28.40625 13.289062 -28.265625 13.03125 -27.984375 C 12.78125 -27.703125 12.65625 -27.375 12.65625 -27 L 12.65625 0 L 3.1875 0 L 3.1875 -34.484375 L 11.796875 -34.484375 L 11.796875 -32.71875 C 13.265625 -34.363281 15.484375 -35.1875 18.453125 -35.1875 L 19.078125 -35.1875 C 22.566406 -35.1875 24.992188 -34.101562 26.359375 -31.9375 C 27.816406 -34.101562 30.242188 -35.1875 33.640625 -35.1875 Z M 34.28125 -35.1875 "/></g></g></g><g fill="#f7fdff" fill-opacity="1"><g transform="translate(252.173119, 99.251878)"><g><path d="M 20.703125 -34.484375 L 28.6875 -34.484375 L 28.6875 0 L 20.703125 0 L 20.703125 -2.546875 C 19.242188 -0.378906 16.816406 0.703125 13.421875 0.703125 L 11.9375 0.703125 C 6.101562 0.703125 3.1875 -2.40625 3.1875 -8.625 L 3.1875 -25.859375 C 3.1875 -32.078125 6.101562 -35.1875 11.9375 -35.1875 L 13.421875 -35.1875 C 16.816406 -35.1875 19.242188 -34.101562 20.703125 -31.9375 Z M 19.21875 -7.484375 L 19.21875 -27 C 19.21875 -27.375 19.085938 -27.703125 18.828125 -27.984375 C 18.578125 -28.265625 18.257812 -28.40625 17.875 -28.40625 L 14 -28.40625 C 13.613281 -28.40625 13.289062 -28.265625 13.03125 -27.984375 C 12.78125 -27.703125 12.65625 -27.375 12.65625 -27 L 12.65625 -7.484375 C 12.65625 -7.109375 12.78125 -6.78125 13.03125 -6.5 C 13.289062 -6.21875 13.613281 -6.078125 14 -6.078125 L 17.875 -6.078125 C 18.257812 -6.078125 18.578125 -6.21875 18.828125 -6.5 C 19.085938 -6.78125 19.21875 -7.109375 19.21875 -7.484375 Z M 19.21875 -7.484375 "/></g></g></g><g fill="#f7fdff" fill-opacity="1"><g transform="translate(282.346392, 99.251878)"><g><path d="M 17.875 -35.1875 L 19.71875 -35.1875 L 19.71875 -26 L 15.046875 -26 C 13.453125 -26 12.65625 -25.175781 12.65625 -23.53125 L 12.65625 0 L 3.1875 0 L 3.1875 -34.484375 L 11.796875 -34.484375 L 11.796875 -31.171875 C 13.171875 -33.847656 15.195312 -35.1875 17.875 -35.1875 Z M 17.875 -35.1875 "/></g></g></g><g fill="#f7fdff" fill-opacity="1"><g transform="translate(301.354741, 99.251878)"><g><path d="M 30.3125 -34.484375 L 23.25 -18.296875 L 31.453125 0 L 21.984375 0 L 15.484375 -14.34375 L 12.65625 -14.34375 L 12.65625 0 L 3.1875 0 L 3.1875 -45.71875 L 12.65625 -45.71875 L 12.65625 -22.125 L 15.828125 -22.125 L 20.984375 -34.484375 Z M 30.3125 -34.484375 "/></g></g></g><g fill="#f7fdff" fill-opacity="1"><g transform="translate(331.810672, 99.251878)"><g><path d="M 20.703125 -34.484375 L 28.6875 -34.484375 L 28.6875 0 L 20.703125 0 L 20.703125 -2.546875 C 19.242188 -0.378906 16.816406 0.703125 13.421875 0.703125 L 11.9375 0.703125 C 6.101562 0.703125 3.1875 -2.40625 3.1875 -8.625 L 3.1875 -25.859375 C 3.1875 -32.078125 6.101562 -35.1875 11.9375 -35.1875 L 13.421875 -35.1875 C 16.816406 -35.1875 19.242188 -34.101562 20.703125 -31.9375 Z M 19.21875 -7.484375 L 19.21875 -27 C 19.21875 -27.375 19.085938 -27.703125 18.828125 -27.984375 C 18.578125 -28.265625 18.257812 -28.40625 17.875 -28.40625 L 14 -28.40625 C 13.613281 -28.40625 13.289062 -28.265625 13.03125 -27.984375 C 12.78125 -27.703125 12.65625 -27.375 12.65625 -27 L 12.65625 -7.484375 C 12.65625 -7.109375 12.78125 -6.78125 13.03125 -6.5 C 13.289062 -6.21875 13.613281 -6.078125 14 -6.078125 L 17.875 -6.078125 C 18.257812 -6.078125 18.578125 -6.21875 18.828125 -6.5 C 19.085938 -6.78125 19.21875 -7.109375 19.21875 -7.484375 Z M 19.21875 -7.484375 "/></g></g></g><g fill="#f7fdff" fill-opacity="1"><g transform="translate(361.983957, 99.251878)"><g><path d="M 18.453125 -35.1875 L 19.921875 -35.1875 C 25.765625 -35.1875 28.6875 -32.078125 28.6875 -25.859375 L 28.6875 -8.625 C 28.6875 -2.40625 25.765625 0.703125 19.921875 0.703125 L 18.453125 0.703125 C 15.054688 0.703125 12.628906 -0.378906 11.171875 -2.546875 L 11.171875 0 L 3.1875 0 L 3.1875 -45.71875 L 12.65625 -45.71875 L 12.65625 -33.5 C 14.15625 -34.625 16.085938 -35.1875 18.453125 -35.1875 Z M 12.65625 -27 L 12.65625 -7.484375 C 12.65625 -7.109375 12.78125 -6.78125 13.03125 -6.5 C 13.289062 -6.21875 13.613281 -6.078125 14 -6.078125 L 17.875 -6.078125 C 18.257812 -6.078125 18.578125 -6.21875 18.828125 -6.5 C 19.085938 -6.78125 19.21875 -7.109375 19.21875 -7.484375 L 19.21875 -27 C 19.21875 -27.375 19.085938 -27.703125 18.828125 -27.984375 C 18.578125 -28.265625 18.257812 -28.40625 17.875 -28.40625 L 14 -28.40625 C 13.613281 -28.40625 13.289062 -28.265625 13.03125 -27.984375 C 12.78125 -27.703125 12.65625 -27.375 12.65625 -27 Z M 12.65625 -27 "/></g></g></g><g fill="#f7fdff" fill-opacity="1"><g transform="translate(392.157242, 99.251878)"><g><path d="M 12.65625 0 L 3.1875 0 L 3.1875 -45.71875 L 12.65625 -45.71875 Z M 12.65625 0 "/></g></g></g><g fill="#f7fdff" fill-opacity="1"><g transform="translate(406.219123, 99.251878)"><g><path d="M 19.921875 -35.1875 C 25.765625 -35.1875 28.6875 -32.078125 28.6875 -25.859375 L 28.6875 -14.703125 L 12.65625 -14.703125 L 12.65625 -7.484375 C 12.65625 -7.109375 12.78125 -6.78125 13.03125 -6.5 C 13.289062 -6.21875 13.613281 -6.078125 14 -6.078125 L 17.875 -6.078125 C 18.257812 -6.078125 18.578125 -6.21875 18.828125 -6.5 C 19.085938 -6.78125 19.21875 -7.109375 19.21875 -7.484375 L 19.21875 -11.3125 L 28.6875 -11.3125 L 28.6875 -8.625 C 28.6875 -2.40625 25.765625 0.703125 19.921875 0.703125 L 11.9375 0.703125 C 6.101562 0.703125 3.1875 -2.40625 3.1875 -8.625 L 3.1875 -25.859375 C 3.1875 -32.078125 6.101562 -35.1875 11.9375 -35.1875 Z M 12.65625 -20.921875 L 19.21875 -20.921875 L 19.21875 -27.28125 C 19.21875 -27.65625 19.085938 -27.984375 18.828125 -28.265625 C 18.578125 -28.546875 18.257812 -28.6875 17.875 -28.6875 L 14 -28.6875 C 13.613281 -28.6875 13.289062 -28.546875 13.03125 -28.265625 C 12.78125 -27.984375 12.65625 -27.65625 12.65625 -27.28125 Z M 12.65625 -20.921875 "/></g></g></g><g fill="#00afef" fill-opacity="1"><g transform="translate(435.179563, 99.251878)"><g><path d="M 20.5625 -7.484375 L 20.5625 -14.5625 L 29.96875 -14.5625 L 29.96875 -8.625 C 29.96875 -2.40625 27.046875 0.703125 21.203125 0.703125 L 12.296875 0.703125 C 6.453125 0.703125 3.53125 -2.40625 3.53125 -8.625 L 3.53125 -37.109375 C 3.53125 -43.328125 6.453125 -46.4375 12.296875 -46.4375 L 21.203125 -46.4375 C 27.046875 -46.4375 29.96875 -43.328125 29.96875 -37.109375 L 29.96875 -32.796875 L 20.5625 -32.796875 L 20.5625 -38.296875 C 20.5625 -38.679688 20.429688 -39.015625 20.171875 -39.296875 C 19.910156 -39.578125 19.59375 -39.71875 19.21875 -39.71875 L 14.765625 -39.71875 C 14.390625 -39.71875 14.070312 -39.578125 13.8125 -39.296875 C 13.550781 -39.015625 13.421875 -38.679688 13.421875 -38.296875 L 13.421875 -7.484375 C 13.421875 -7.109375 13.550781 -6.78125 13.8125 -6.5 C 14.070312 -6.21875 14.390625 -6.078125 14.765625 -6.078125 L 19.21875 -6.078125 C 19.59375 -6.078125 19.910156 -6.21875 20.171875 -6.5 C 20.429688 -6.78125 20.5625 -7.109375 20.5625 -7.484375 Z M 20.5625 -7.484375 "/></g></g></g><g fill="#00afef" fill-opacity="1"><g transform="translate(465.77682, 99.251878)"><g><path d="M 12.65625 0 L 3.1875 0 L 3.1875 -45.71875 L 12.65625 -45.71875 Z M 12.65625 0 "/></g></g></g><g fill="#00afef" fill-opacity="1"><g transform="translate(479.838693, 99.251878)"><g><path d="M 28.6875 -25.859375 L 28.6875 -8.625 C 28.6875 -2.40625 25.765625 0.703125 19.921875 0.703125 L 11.9375 0.703125 C 6.101562 0.703125 3.1875 -2.40625 3.1875 -8.625 L 3.1875 -25.859375 C 3.1875 -32.078125 6.101562 -35.1875 11.9375 -35.1875 L 19.921875 -35.1875 C 25.765625 -35.1875 28.6875 -32.078125 28.6875 -25.859375 Z M 19.21875 -6.640625 L 19.21875 -27.921875 C 19.21875 -28.296875 19.085938 -28.625 18.828125 -28.90625 C 18.578125 -29.1875 18.257812 -29.328125 17.875 -29.328125 L 14 -29.328125 C 13.613281 -29.328125 13.289062 -29.1875 13.03125 -28.90625 C 12.78125 -28.625 12.65625 -28.296875 12.65625 -27.921875 L 12.65625 -6.640625 C 12.65625 -6.265625 12.78125 -5.9375 13.03125 -5.65625 C 13.289062 -5.375 13.613281 -5.234375 14 -5.234375 L 17.875 -5.234375 C 18.257812 -5.234375 18.578125 -5.375 18.828125 -5.65625 C 19.085938 -5.9375 19.21875 -6.265625 19.21875 -6.640625 Z M 19.21875 -6.640625 "/></g></g></g><g fill="#00afef" fill-opacity="1"><g transform="translate(510.011971, 99.251878)"><g><path d="M 19.21875 -34.484375 L 28.6875 -34.484375 L 28.6875 0 L 20.078125 0 L 20.078125 -1.765625 C 18.609375 -0.117188 16.390625 0.703125 13.421875 0.703125 L 11.9375 0.703125 C 6.101562 0.703125 3.1875 -2.40625 3.1875 -8.625 L 3.1875 -34.484375 L 12.65625 -34.484375 L 12.65625 -7.484375 C 12.65625 -7.109375 12.78125 -6.78125 13.03125 -6.5 C 13.289062 -6.21875 13.613281 -6.078125 14 -6.078125 L 17.875 -6.078125 C 18.257812 -6.078125 18.578125 -6.21875 18.828125 -6.5 C 19.085938 -6.78125 19.21875 -7.109375 19.21875 -7.484375 Z M 19.21875 -34.484375 "/></g></g></g><g fill="#00afef" fill-opacity="1"><g transform="translate(540.185244, 99.251878)"><g><path d="M 13.421875 -35.1875 C 15.828125 -35.1875 17.757812 -34.625 19.21875 -33.5 L 19.21875 -45.71875 L 28.6875 -45.71875 L 28.6875 0 L 20.703125 0 L 20.703125 -2.546875 C 19.242188 -0.378906 16.816406 0.703125 13.421875 0.703125 L 11.9375 0.703125 C 6.101562 0.703125 3.1875 -2.40625 3.1875 -8.625 L 3.1875 -25.859375 C 3.1875 -32.078125 6.101562 -35.1875 11.9375 -35.1875 Z M 19.21875 -7.484375 L 19.21875 -27 C 19.21875 -27.375 19.085938 -27.703125 18.828125 -27.984375 C 18.578125 -28.265625 18.257812 -28.40625 17.875 -28.40625 L 14 -28.40625 C 13.613281 -28.40625 13.289062 -28.265625 13.03125 -27.984375 C 12.78125 -27.703125 12.65625 -27.375 12.65625 -27 L 12.65625 -7.484375 C 12.65625 -7.109375 12.78125 -6.78125 13.03125 -6.5 C 13.289062 -6.21875 13.613281 -6.078125 14 -6.078125 L 17.875 -6.078125 C 18.257812 -6.078125 18.578125 -6.21875 18.828125 -6.5 C 19.085938 -6.78125 19.21875 -7.109375 19.21875 -7.484375 Z M 19.21875 -7.484375 "/></g></g></g><g clip-path="url(#id1)"><path fill="#00afef" d="M 123.769531 40.882812 L 129.054688 40.882812 L 124.960938 32.453125 L 124.941406 32.414062 L 121.113281 24.523438 L 116.171875 31.171875 L 108.957031 40.882812 L 113.707031 40.882812 C 113 45.867188 111.796875 50.753906 110.128906 55.464844 C 109.367188 57.625 108.507812 59.746094 107.550781 61.824219 C 105.667969 65.929688 103.414062 69.863281 100.824219 73.566406 C 100.789062 73.691406 100.75 73.816406 100.714844 73.941406 C 100.625 73.992188 100.535156 74.042969 100.449219 74.097656 C 98.351562 77.035156 96.042969 79.824219 93.527344 82.4375 C 90.332031 85.753906 86.808594 88.785156 82.980469 91.464844 C 82.910156 91.515625 82.835938 91.566406 82.765625 91.617188 C 77.4375 95.324219 71.53125 98.355469 65.117188 100.550781 L 64.582031 100.730469 C 57.191406 103.195312 49.136719 104.554688 40.527344 104.558594 C 40.507812 104.558594 40.484375 104.558594 40.464844 104.558594 C 36.804688 104.558594 33.390625 103.511719 30.503906 101.699219 C 25.214844 98.378906 21.699219 92.5 21.699219 85.800781 C 21.699219 75.753906 29.605469 67.546875 39.535156 67.0625 C 39.84375 67.046875 40.152344 67.039062 40.464844 67.039062 C 43.808594 67.039062 46.953125 67.917969 49.671875 69.453125 C 49.550781 68.433594 49.492188 67.390625 49.492188 66.339844 C 49.492188 63.757812 49.863281 61.261719 50.5625 58.90625 C 53.765625 48.078125 63.792969 40.175781 75.664062 40.175781 C 86.253906 40.175781 95.375 46.464844 99.496094 55.511719 C 100.53125 57.789062 101.253906 60.242188 101.597656 62.8125 C 101.753906 63.964844 101.835938 65.144531 101.835938 66.339844 C 101.835938 66.40625 101.835938 66.472656 101.835938 66.539062 C 101.976562 66.292969 102.117188 66.042969 102.257812 65.792969 C 102.914062 64.621094 103.542969 63.425781 104.132812 62.21875 C 105.875 58.65625 107.324219 54.957031 108.464844 51.164062 C 107.09375 48.207031 105.332031 45.464844 103.25 43.007812 C 96.621094 35.183594 86.722656 30.214844 75.664062 30.214844 C 58.910156 30.214844 44.816406 41.621094 40.726562 57.082031 C 40.636719 57.082031 40.550781 57.082031 40.464844 57.082031 C 24.601562 57.082031 11.738281 69.941406 11.738281 85.800781 C 11.738281 98.15625 19.546875 108.691406 30.503906 112.742188 C 33.585938 113.882812 36.917969 114.507812 40.394531 114.515625 L 40.464844 114.515625 C 40.492188 114.515625 40.523438 114.515625 40.550781 114.515625 C 40.558594 114.515625 40.5625 114.515625 40.570312 114.515625 C 57.40625 114.496094 73.003906 109.703125 86.066406 101.324219 L 87.214844 100.574219 C 89.628906 98.96875 91.957031 97.238281 94.183594 95.390625 C 100.15625 90.4375 105.417969 84.648438 109.8125 78.175781 C 111.085938 76.296875 112.285156 74.359375 113.410156 72.367188 C 115.050781 69.464844 116.523438 66.449219 117.820312 63.328125 C 120.5625 56.734375 122.519531 49.683594 123.566406 42.273438 L 123.765625 40.875 Z M 40.753906 114.519531 C 41.09375 114.515625 41.09375 114.515625 40.753906 114.519531 Z M 40.566406 114.519531 L 40.550781 114.519531 Z M 40.566406 114.519531 " fill-opacity="1" fill-rule="evenodd"/></g><path fill="#f7fdff" d="M 76.609375 92.09375 L 76.609375 62.183594 L 65.863281 62.183594 L 65.863281 97.1875 C 69.589844 95.804688 73.183594 94.101562 76.609375 92.09375 Z M 76.609375 92.09375 " fill-opacity="1" fill-rule="evenodd"/><path fill="#f7fdff" d="M 52.988281 72.574219 L 51.546875 72.574219 L 51.546875 100.839844 C 55.179688 100.304688 58.769531 99.496094 62.292969 98.402344 L 62.292969 72.570312 L 52.988281 72.570312 Z M 52.988281 72.574219 " fill-opacity="1" fill-rule="evenodd"/><path fill="#00afef" d="M 90.921875 51.792969 L 80.175781 51.792969 L 80.175781 89.855469 C 80.488281 89.648438 80.792969 89.4375 81.101562 89.222656 L 81.308594 89.078125 C 84.753906 86.660156 87.972656 83.929688 90.921875 80.929688 Z M 90.921875 51.792969 " fill-opacity="1" fill-rule="evenodd"/><path fill="#00afef" d="M 128.976562 62.027344 L 137.976562 62.027344 C 139.488281 62.027344 140.726562 63.261719 140.726562 64.773438 L 140.726562 73.769531 C 140.726562 75.285156 139.488281 76.519531 137.976562 76.519531 L 128.976562 76.519531 C 127.464844 76.519531 126.226562 75.285156 126.226562 73.769531 L 126.226562 64.773438 C 126.226562 63.261719 127.464844 62.027344 128.976562 62.027344 Z M 128.976562 62.027344 " fill-opacity="1" fill-rule="evenodd"/><g clip-path="url(#id2)"><path fill="#f7fdff" d="M 142.488281 53.484375 L 147.921875 53.484375 C 148.835938 53.484375 149.582031 54.230469 149.582031 55.140625 L 149.582031 60.570312 C 149.582031 61.480469 148.835938 62.226562 147.921875 62.226562 L 142.488281 62.226562 C 141.578125 62.226562 140.832031 61.480469 140.832031 60.570312 L 140.832031 55.140625 C 140.832031 54.230469 141.578125 53.484375 142.488281 53.484375 Z M 142.488281 53.484375 " fill-opacity="1" fill-rule="evenodd"/></g><path fill="#00afef" d="M 135.726562 48.699219 L 138.753906 48.699219 C 139.261719 48.699219 139.675781 49.113281 139.675781 49.621094 L 139.675781 52.648438 C 139.675781 53.15625 139.261719 53.570312 138.753906 53.570312 L 135.726562 53.570312 C 135.21875 53.570312 134.804688 53.15625 134.804688 52.648438 L 134.804688 49.621094 C 134.804688 49.113281 135.21875 48.699219 135.726562 48.699219 Z M 135.726562 48.699219 " fill-opacity="1" fill-rule="evenodd"/><path fill="#00afef" d="M 143.9375 47.742188 L 145.453125 47.742188 C 145.707031 47.742188 145.914062 47.949219 145.914062 48.203125 L 145.914062 49.714844 C 145.914062 49.96875 145.707031 50.175781 145.453125 50.175781 L 143.9375 50.175781 C 143.6875 50.175781 143.476562 49.96875 143.476562 49.714844 L 143.476562 48.203125 C 143.476562 47.949219 143.6875 47.742188 143.9375 47.742188 Z M 143.9375 47.742188 " fill-opacity="1" fill-rule="evenodd"/><g clip-path="url(#id3)"><path fill="#f7fdff" d="M 120.398438 64.753906 Z M 120.335938 64.902344 Z M 119.488281 66.84375 Z M 118.941406 68.027344 Z M 117.277344 71.378906 Z M 117.203125 71.523438 Z M 108.917969 104.5625 L 86.414062 104.5625 C 79.472656 108.847656 72.027344 112.074219 64.273438 114.226562 L 64.273438 114.519531 L 108.917969 114.519531 C 123.480469 114.519531 135.289062 102.714844 135.289062 88.15625 C 135.289062 84.800781 134.664062 81.597656 133.523438 78.648438 L 128.976562 78.648438 C 126.296875 78.648438 124.097656 76.453125 124.097656 73.769531 L 124.097656 66.59375 C 122.96875 65.796875 121.769531 65.085938 120.515625 64.472656 L 120.460938 64.605469 L 120.457031 64.617188 L 120.394531 64.757812 L 120.332031 64.90625 L 120.273438 65.046875 L 120.269531 65.054688 L 120.210938 65.191406 L 120.207031 65.207031 L 120.148438 65.335938 L 120.140625 65.359375 L 120.089844 65.480469 L 120.074219 65.507812 L 120.027344 65.621094 L 120.011719 65.65625 L 119.945312 65.804688 L 119.898438 65.90625 L 119.839844 66.046875 L 119.8125 66.101562 L 119.808594 66.113281 L 119.75 66.25 L 119.710938 66.332031 L 119.683594 66.402344 L 119.613281 66.550781 L 119.609375 66.566406 L 119.480469 66.847656 L 119.457031 66.90625 L 119.414062 66.996094 L 119.390625 67.046875 L 119.347656 67.140625 L 119.328125 67.1875 L 119.277344 67.289062 L 119.261719 67.328125 L 119.210938 67.4375 L 119.195312 67.46875 L 119.140625 67.585938 L 119.132812 67.609375 L 119.074219 67.734375 L 119.066406 67.75 L 119.003906 67.878906 L 119 67.890625 L 118.933594 68.03125 L 118.867188 68.175781 L 118.800781 68.3125 L 118.796875 68.320312 L 118.734375 68.457031 L 118.726562 68.46875 L 118.667969 68.597656 L 118.65625 68.617188 L 118.597656 68.738281 L 118.585938 68.765625 L 118.53125 68.878906 L 118.441406 69.058594 L 118.394531 69.160156 L 118.371094 69.203125 L 118.324219 69.300781 L 118.300781 69.351562 L 118.257812 69.441406 L 118.226562 69.496094 L 118.1875 69.578125 L 118.15625 69.644531 L 118.082031 69.789062 L 118.046875 69.859375 L 118.011719 69.9375 L 117.976562 70 L 117.9375 70.082031 L 117.90625 70.136719 L 117.863281 70.226562 L 117.839844 70.277344 L 117.789062 70.371094 L 117.769531 70.414062 L 117.71875 70.515625 L 117.644531 70.660156 L 117.628906 70.691406 L 117.570312 70.804688 L 117.558594 70.832031 L 117.496094 70.949219 L 117.484375 70.96875 L 117.414062 71.109375 L 117.347656 71.238281 L 117.34375 71.246094 L 117.195312 71.527344 L 117.125 71.660156 L 117.121094 71.671875 L 117.054688 71.796875 L 117.042969 71.816406 L 116.980469 71.933594 L 116.96875 71.957031 L 116.90625 72.074219 L 116.890625 72.101562 L 116.832031 72.210938 L 116.8125 72.246094 L 116.761719 72.347656 L 116.738281 72.390625 L 116.6875 72.484375 L 116.660156 72.53125 L 116.613281 72.621094 L 116.582031 72.675781 L 116.347656 73.105469 L 116.3125 73.167969 L 116.269531 73.246094 L 116.238281 73.304688 L 116.191406 73.386719 L 116.160156 73.4375 C 121.589844 76.113281 125.324219 81.703125 125.324219 88.160156 C 125.324219 97.21875 117.972656 104.566406 108.910156 104.566406 Z M 108.917969 104.5625 " fill-opacity="1" fill-rule="evenodd"/></g></svg>